<?xml version="1.0" encoding="UTF-8"?>
<svg width="16px" height="16px" viewBox="0 0 16 16" version="1.1" xmlns="http://www.w3.org/2000/svg" xmlns:xlink="http://www.w3.org/1999/xlink">
    <!-- Generator: Sketch 50 (54983) - http://www.bohemiancoding.com/sketch -->
    <title>ic_addplus</title>
    <desc>Created with Sketch.</desc>
    <defs></defs>
    <g id="web" stroke="none" stroke-width="1" fill="none" fill-rule="evenodd">
        <g id="1.00-wallet" transform="translate(-564.000000, -106.000000)" fill="#000000" fill-rule="nonzero">
            <g id="ic_addplus" transform="translate(558.000000, 100.000000)">
                <path d="M13,7 C13,6.44771525 13.4477153,6 14,6 C14.5522847,6 15,6.44771525 15,7 L15,21 C15,21.5522847 14.5522847,22 14,22 C13.4477153,22 13,21.5522847 13,21 L13,7 Z" id="Path-9"></path>
                <path d="M7,15 C6.44771525,15 6,14.5522847 6,14 C6,13.4477153 6.44771525,13 7,13 L21,13 C21.5522847,13 22,13.4477153 22,14 C22,14.5522847 21.5522847,15 21,15 L7,15 Z" id="Path-10"></path>
            </g>
        </g>
    </g>
</svg>