<?xml version="1.0" encoding="UTF-8"?>
<svg width="44px" height="44px" viewBox="0 0 44 44" version="1.1" xmlns="http://www.w3.org/2000/svg" xmlns:xlink="http://www.w3.org/1999/xlink">
    <!-- Generator: Sketch 50 (54983) - http://www.bohemiancoding.com/sketch -->
    <title>ic_alert_big</title>
    <desc>Created with Sketch.</desc>
    <defs></defs>
    <g id="web" stroke="none" stroke-width="1" fill="none" fill-rule="evenodd">
        <g id="1.08-create-wallet-alert" transform="translate(-621.000000, -48.000000)" fill="#FFFFFF" fill-rule="nonzero">
            <g id="Group-6" transform="translate(599.000000, 20.000000)">
                <g id="ic_alert_big" transform="translate(16.000000, 22.000000)">
                    <path d="M28,48.5 C39.3218374,48.5 48.5,39.3218374 48.5,28 C48.5,16.6781626 39.3218374,7.5 28,7.5 C16.6781626,7.5 7.5,16.6781626 7.5,28 C7.5,39.3218374 16.6781626,48.5 28,48.5 Z M28,50 C15.8497355,50 6,40.1502645 6,28 C6,15.8497355 15.8497355,6 28,6 C40.1502645,6 50,15.8497355 50,28 C50,40.1502645 40.1502645,50 28,50 Z" id="Oval-5"></path>
                    <path d="M27,27.5 C26.7238576,27.5 26.5,27.7238576 26.5,28 L26.5,40 C26.5,40.2761424 26.7238576,40.5 27,40.5 L29,40.5 C29.2761424,40.5 29.5,40.2761424 29.5,40 L29.5,28 C29.5,27.7238576 29.2761424,27.5 29,27.5 L27,27.5 Z M27,26 L29,26 C30.1045695,26 31,26.8954305 31,28 L31,40 C31,41.1045695 30.1045695,42 29,42 L27,42 C25.8954305,42 25,41.1045695 25,40 L25,28 C25,26.8954305 25.8954305,26 27,26 Z" id="Rectangle-25"></path>
                    <path d="M28,22.5 C29.3807119,22.5 30.5,21.3807119 30.5,20 C30.5,18.6192881 29.3807119,17.5 28,17.5 C26.6192881,17.5 25.5,18.6192881 25.5,20 C25.5,21.3807119 26.6192881,22.5 28,22.5 Z M28,24 C25.790861,24 24,22.209139 24,20 C24,17.790861 25.790861,16 28,16 C30.209139,16 32,17.790861 32,20 C32,22.209139 30.209139,24 28,24 Z" id="Oval-7"></path>
                </g>
            </g>
        </g>
    </g>
</svg>