<?xml version="1.0" encoding="UTF-8"?>
<svg width="18px" height="18px" viewBox="0 0 18 18" version="1.1" xmlns="http://www.w3.org/2000/svg" xmlns:xlink="http://www.w3.org/1999/xlink">
    <!-- Generator: Sketch 49.3 (51167) - http://www.bohemiancoding.com/sketch -->
    <title>ic_copy</title>
    <desc>Created with Sketch.</desc>
    <defs></defs>
    <g id="web" stroke="none" stroke-width="1" fill="none" fill-rule="evenodd">
        <g id="0.04-register-2" transform="translate(-931.000000, -332.000000)" fill="#ffffff" fill-rule="nonzero">
            <g id="ic_copy" transform="translate(926.000000, 327.000000)">
                <path d="M18.75,8 L17.25,8 C17.25,7.30964406 16.6903559,6.75 16,6.75 L8,6.75 C7.30964406,6.75 6.75,7.30964406 6.75,8 L6.75,16 C6.75,16.6903559 7.30964406,17.25 8,17.25 L8,18.75 C6.48121694,18.75 5.25,17.5187831 5.25,16 L5.25,8 C5.25,6.48121694 6.48121694,5.25 8,5.25 L16,5.25 C17.5187831,5.25 18.75,6.48121694 18.75,8 Z" id="Combined-Shape"></path>
                <path d="M12,10.75 C11.3096441,10.75 10.75,11.3096441 10.75,12 L10.75,20 C10.75,20.6903559 11.3096441,21.25 12,21.25 L20,21.25 C20.6903559,21.25 21.25,20.6903559 21.25,20 L21.25,12 C21.25,11.3096441 20.6903559,10.75 20,10.75 L12,10.75 Z M12,9.25 L20,9.25 C21.5187831,9.25 22.75,10.4812169 22.75,12 L22.75,20 C22.75,21.5187831 21.5187831,22.75 20,22.75 L12,22.75 C10.4812169,22.75 9.25,21.5187831 9.25,20 L9.25,12 C9.25,10.4812169 10.4812169,9.25 12,9.25 Z" id="Rectangle-17"></path>
            </g>
        </g>
    </g>
</svg>