<?xml version="1.0" encoding="UTF-8"?>
<svg width="14px" height="14px" viewBox="0 0 14 14" version="1.1" xmlns="http://www.w3.org/2000/svg" xmlns:xlink="http://www.w3.org/1999/xlink">
    <!-- Generator: Sketch 49.3 (51167) - http://www.bohemiancoding.com/sketch -->
    <title>ic_close_gy</title>
    <desc>Created with Sketch.</desc>
    <defs></defs>
    <g id="web" stroke="none" stroke-width="1" fill="none" fill-rule="evenodd">
        <g id="1.01-transaction-preview" transform="translate(-949.000000, -151.000000)" fill="#616161" fill-rule="nonzero">
            <g id="ic_close_gy" transform="translate(942.000000, 144.000000)">
                <g id="Group" transform="translate(14.000000, 14.000000) rotate(45.000000) translate(-14.000000, -14.000000) translate(6.000000, 6.000000)">
                    <path d="M0,9 C-0.55228475,9 -1,8.55228475 -1,8 C-1,7.44771525 -0.55228475,7 0,7 L16,7 C16.5522847,7 17,7.44771525 17,8 C17,8.55228475 16.5522847,9 16,9 L0,9 Z" id="Path-10"></path>
                    <path d="M9,16 C9,16.5522847 8.55228475,17 8,17 C7.44771525,17 7,16.5522847 7,16 L7,0 C7,-0.55228475 7.44771525,-1 8,-1 C8.55228475,-1 9,-0.55228475 9,0 L9,16 Z" id="Path-10"></path>
                </g>
            </g>
        </g>
    </g>
</svg>