<?xml version="1.0" encoding="UTF-8"?>
<svg width="26px" height="18px" viewBox="0 0 26 18" version="1.1" xmlns="http://www.w3.org/2000/svg" xmlns:xlink="http://www.w3.org/1999/xlink">
    <!-- Generator: Sketch 50 (54983) - http://www.bohemiancoding.com/sketch -->
    <title>ic_exit</title>
    <desc>Created with Sketch.</desc>
    <defs></defs>
    <g id="web" stroke="none" stroke-width="1" fill="none" fill-rule="evenodd">
        <g id="1.00-wallet" transform="translate(-40.000000, -938.000000)" fill="#FFFFFF" fill-rule="nonzero">
            <g id="ic_exit" transform="translate(31.000000, 929.000000)">
                <path d="M27,15 L27,12 C27,10.3431458 25.6568542,9 24,9 L12,9 C10.3431458,9 9,10.3431458 9,12 L9,24 C9,25.6568542 10.3431458,27 12,27 L24,27 C25.6568542,27 27,25.6568542 27,24 L27,21 L25.5,21 L25.5,24 C25.5,24.8284271 24.8284271,25.5 24,25.5 L12,25.5 C11.1715729,25.5 10.5,24.8284271 10.5,24 L10.5,12 C10.5,11.1715729 11.1715729,10.5 12,10.5 L24,10.5 C24.8284271,10.5 25.5,11.1715729 25.5,12 L25.5,15 L27,15 Z" id="Rectangle-24"></path>
                <path d="M19,18.8 C18.5581722,18.8 18.2,18.4418278 18.2,18 C18.2,17.5581722 18.5581722,17.2 19,17.2 L34,17.2 C34.4418278,17.2 34.8,17.5581722 34.8,18 C34.8,18.4418278 34.4418278,18.8 34,18.8 L19,18.8 Z" id="Path-6"></path>
                <path d="M29.4343146,14.5656854 C29.1218951,14.253266 29.1218951,13.746734 29.4343146,13.4343146 C29.746734,13.1218951 30.253266,13.1218951 30.5656854,13.4343146 L34.5656854,17.4343146 C34.8781049,17.746734 34.8781049,18.253266 34.5656854,18.5656854 L30.5656854,22.5656854 C30.253266,22.8781049 29.746734,22.8781049 29.4343146,22.5656854 C29.1218951,22.253266 29.1218951,21.746734 29.4343146,21.4343146 L32.8686292,18 L29.4343146,14.5656854 Z" id="Path-7"></path>
            </g>
        </g>
    </g>
</svg>