<?xml version="1.0" encoding="UTF-8"?>
<svg width="29px" height="26px" viewBox="0 0 29 26" version="1.1" xmlns="http://www.w3.org/2000/svg" xmlns:xlink="http://www.w3.org/1999/xlink">
    <!-- Generator: Sketch 49.3 (51167) - http://www.bohemiancoding.com/sketch -->
    <title>ic_exchange</title>
    <desc>Created with Sketch.</desc>
    <defs></defs>
    <g id="web" stroke="none" stroke-width="1" fill="none" fill-rule="evenodd">
        <g id="0.04-register-2" transform="translate(-34.000000, -262.000000)" fill="#FFFFFF" fill-rule="nonzero">
            <g id="ic_exchange" transform="translate(31.000000, 257.000000)">
                <g id="Group" transform="translate(3.857143, 6.428571)">
                    <path d="M25.5857864,3.85714286 L22.4357504,0.707106781 C22.0452261,0.316582489 22.0452261,-0.316582489 22.4357504,-0.707106781 C22.8262747,-1.09763107 23.4594396,-1.09763107 23.8499639,-0.707106781 L27.7071068,3.15003608 C28.0976311,3.54056037 28.0976311,4.17372535 27.7071068,4.56424964 L23.8499639,8.4213925 C23.4594396,8.81191679 22.8262747,8.81191679 22.4357504,8.4213925 C22.0452261,8.0308682 22.0452261,7.39770322 22.4357504,7.00717893 L25.5857864,3.85714286 Z" id="Path-5"></path>
                    <path d="M13.8291351,7.60480864 C16.2702771,4.18597688 18.6817405,2.85714286 23.1428571,2.85714286 L27,2.85714286 L27,4.85714286 L23.1428571,4.85714286 C19.1902136,4.85714286 17.2608996,6.01092007 15.0012037,9.42697356 C14.6128555,8.78181352 14.2236748,8.17469604 13.8291351,7.60480864 Z M11.122823,15.4749636 C8.42457244,18.8540847 5.36080437,20.2857143 0,20.2857143 L0,18.2857143 C4.96009594,18.2857143 7.55065469,16.9941961 10.0162328,13.6333119 C10.1223817,13.8162452 10.2195412,13.9838145 10.2242551,13.9920056 C10.5268562,14.5124881 10.8255152,15.0065839 11.122823,15.4749636 Z" id="Combined-Shape"></path>
                    <path d="M12.11796,12.8436635 C12.1348115,12.8726999 12.1413727,12.8839922 12.1398157,12.8812887 C12.1325346,12.8687653 12.1252493,12.8562235 12.11796,12.8436635 Z M11.6719354,12.0752996 C8.58820104,6.78889787 6.06618756,4.85714286 0,4.85714286 L0,2.85714286 C6.89809816,2.85714286 9.99284291,5.22758565 13.3994932,11.0675575 C13.4928479,11.2275941 13.8602294,11.8610894 13.8700614,11.878168 C16.6902604,16.7289701 18.5515612,18.2857143 23.1428571,18.2857143 L27,18.2857143 L27,20.2857143 L23.1428571,20.2857143 C17.6702329,20.2857143 15.2821065,18.2859682 12.1398157,12.8812887 C12.129516,12.8634047 11.7639587,12.2330538 11.6719354,12.0752996 Z" id="Path-4"></path>
                    <path d="M22.4357504,16.1356782 C22.0452261,15.7451539 22.0452261,15.1119889 22.4357504,14.7214646 C22.8262747,14.3309404 23.4594396,14.3309404 23.8499639,14.7214646 L27.7071068,18.5786075 C28.0976311,18.9691318 28.0976311,19.6022968 27.7071068,19.9928211 L23.8499639,23.8499639 C23.4594396,24.2404882 22.8262747,24.2404882 22.4357504,23.8499639 C22.0452261,23.4594396 22.0452261,22.8262747 22.4357504,22.4357504 L25.5857864,19.2857143 L22.4357504,16.1356782 Z" id="Path-5"></path>
                </g>
            </g>
        </g>
    </g>
</svg>