<?xml version="1.0" encoding="UTF-8"?>
<svg width="28px" height="28px" viewBox="0 0 28 28" version="1.1" xmlns="http://www.w3.org/2000/svg" xmlns:xlink="http://www.w3.org/1999/xlink">
    <!-- Generator: Sketch 49.3 (51167) - http://www.bohemiancoding.com/sketch -->
    <title>ic_more</title>
    <desc>Created with Sketch.</desc>
    <defs></defs>
    <g id="web" stroke="none" stroke-width="1" fill="none" fill-rule="evenodd">
        <g id="0.04-register-2" transform="translate(-35.000000, -336.000000)" fill="#FFFFFF" fill-rule="nonzero">
            <g id="ic_more" transform="translate(31.000000, 332.000000)">
                <path d="M7.07142857,5.89285714 C6.42052154,5.89285714 5.89285714,6.42052154 5.89285714,7.07142857 L5.89285714,13.5 C5.89285714,14.150907 6.42052154,14.6785714 7.07142857,14.6785714 L13.5,14.6785714 C14.150907,14.6785714 14.6785714,14.150907 14.6785714,13.5 L14.6785714,7.07142857 C14.6785714,6.42052154 14.150907,5.89285714 13.5,5.89285714 L7.07142857,5.89285714 Z M7.07142857,4.39285714 L13.5,4.39285714 C14.9793342,4.39285714 16.1785714,5.59209442 16.1785714,7.07142857 L16.1785714,13.5 C16.1785714,14.9793342 14.9793342,16.1785714 13.5,16.1785714 L7.07142857,16.1785714 C5.59209442,16.1785714 4.39285714,14.9793342 4.39285714,13.5 L4.39285714,7.07142857 C4.39285714,5.59209442 5.59209442,4.39285714 7.07142857,4.39285714 Z" id="Rectangle-8"></path>
                <path d="M21.3214286,7.07142857 L21.3214286,13.5 C21.3214286,14.150907 21.849093,14.6785714 22.5,14.6785714 L28.9285714,14.6785714 C29.5794785,14.6785714 30.1071429,14.150907 30.1071429,13.5 L30.1071429,7.07142857 C30.1071429,6.42052154 29.5794785,5.89285714 28.9285714,5.89285714 L22.5,5.89285714 C21.849093,5.89285714 21.3214286,6.42052154 21.3214286,7.07142857 Z M28.9285714,4.39285714 C30.4079056,4.39285714 31.6071429,5.59209442 31.6071429,7.07142857 L31.6071429,13.5 C31.6071429,14.9793342 30.4079056,16.1785714 28.9285714,16.1785714 L22.5,16.1785714 C21.0206658,16.1785714 19.8214286,14.9793342 19.8214286,13.5 L19.8214286,7.07142857 C19.8214286,5.59209442 21.0206658,4.39285714 22.5,4.39285714 L28.9285714,4.39285714 Z" id="Rectangle-8"></path>
                <path d="M7.07142857,21.3214286 C6.42052154,21.3214286 5.89285714,21.849093 5.89285714,22.5 L5.89285714,28.9285714 C5.89285714,29.5794785 6.42052154,30.1071429 7.07142857,30.1071429 L13.5,30.1071429 C14.150907,30.1071429 14.6785714,29.5794785 14.6785714,28.9285714 L14.6785714,22.5 C14.6785714,21.849093 14.150907,21.3214286 13.5,21.3214286 L7.07142857,21.3214286 Z M7.07142857,19.8214286 L13.5,19.8214286 C14.9793342,19.8214286 16.1785714,21.0206658 16.1785714,22.5 L16.1785714,28.9285714 C16.1785714,30.4079056 14.9793342,31.6071429 13.5,31.6071429 L7.07142857,31.6071429 C5.59209442,31.6071429 4.39285714,30.4079056 4.39285714,28.9285714 L4.39285714,22.5 C4.39285714,21.0206658 5.59209442,19.8214286 7.07142857,19.8214286 Z" id="Rectangle-8"></path>
                <path d="M21.3214286,22.5 L21.3214286,28.9285714 C21.3214286,29.5794785 21.849093,30.1071429 22.5,30.1071429 L28.9285714,30.1071429 C29.5794785,30.1071429 30.1071429,29.5794785 30.1071429,28.9285714 L30.1071429,22.5 C30.1071429,21.849093 29.5794785,21.3214286 28.9285714,21.3214286 L22.5,21.3214286 C21.849093,21.3214286 21.3214286,21.849093 21.3214286,22.5 Z M28.9285714,19.8214286 C30.4079056,19.8214286 31.6071429,21.0206658 31.6071429,22.5 L31.6071429,28.9285714 C31.6071429,30.4079056 30.4079056,31.6071429 28.9285714,31.6071429 L22.5,31.6071429 C21.0206658,31.6071429 19.8214286,30.4079056 19.8214286,28.9285714 L19.8214286,22.5 C19.8214286,21.0206658 21.0206658,19.8214286 22.5,19.8214286 L28.9285714,19.8214286 Z" id="Rectangle-8"></path>
            </g>
        </g>
    </g>
</svg>