<?xml version="1.0" encoding="UTF-8"?>
<svg width="22px" height="22px" viewBox="0 0 22 22" version="1.1" xmlns="http://www.w3.org/2000/svg" xmlns:xlink="http://www.w3.org/1999/xlink">
    <!-- Generator: Sketch 50 (54983) - http://www.bohemiancoding.com/sketch -->
    <title>ic_stat_ts</title>
    <desc>Created with Sketch.</desc>
    <defs></defs>
    <g id="web" stroke="none" stroke-width="1" fill="none" fill-rule="evenodd">
        <g id="1.02-transactions-list" transform="translate(-171.000000, -300.000000)">
            <g id="ic_stat_ts" transform="translate(171.000000, 300.000000)">
                <path d="M11,22 C4.92486775,22 0,17.0751322 0,11 C0,4.92486775 4.92486775,0 11,0 C17.0751322,0 22,4.92486775 22,11 C22,17.0751322 17.0751322,22 11,22 Z" id="Oval-5" fill="#FFFFFF" fill-rule="nonzero"></path>
                <path d="M11,21 C16.5228475,21 21,16.5228475 21,11 C21,5.4771525 16.5228475,1 11,1 C5.4771525,1 1,5.4771525 1,11 C1,16.5228475 5.4771525,21 11,21 Z" id="Path" fill="#76B616"></path>
                <path d="M9.46817191,8.99464444 L10.4060132,8.05680313 C11.371244,7.09157234 12.6208116,6.46165479 13.9708387,6.25974458 L15.4041104,6.0453843 C15.6677978,6.00594717 15.9135288,6.18773796 15.952966,6.45142539 C15.9600464,6.49876693 15.9600464,6.54689829 15.952966,6.59423984 L15.7386057,8.02751153 C15.5366955,9.37753864 14.9067779,10.6271062 13.9415471,11.592337 L13.0037058,12.5301783 C13.0101354,13.3985721 12.6895678,14.2585299 12.0384866,14.9096112 C11.5366442,15.4114536 10.9107068,15.7169356 10.2524618,15.8276677 L10.5303985,14.0842469 L7.9141034,11.4679518 L6.17068258,11.7458884 C6.28141463,11.0876434 6.5868967,10.4617061 7.08873911,9.95986368 C7.73982038,9.30878241 8.59977819,8.98821483 9.46817191,8.99464444 Z M6.1499939,15.8483564 C6.20370216,14.3804345 6.41908526,13.4579447 6.7961432,13.0808867 C7.3617301,12.5152998 8.29510261,12.5316748 8.88088905,13.1174612 C9.46667549,13.7032476 9.48305045,14.6366202 8.91746354,15.2022071 C8.5404056,15.579265 7.61791572,15.7946481 6.1499939,15.8483564 Z M12.4997353,10.3986089 C13.05202,10.3986089 13.4997353,9.95089364 13.4997353,9.39860889 C13.4997353,8.84632414 13.05202,8.39860889 12.4997353,8.39860889 C11.9474505,8.39860889 11.4997353,8.84632414 11.4997353,9.39860889 C11.4997353,9.95089364 11.9474505,10.3986089 12.4997353,10.3986089 Z" id="Combined-Shape" fill="#FFFFFF"></path>
            </g>
        </g>
    </g>
</svg>