<?xml version="1.0" encoding="UTF-8"?>
<svg width="27px" height="27px" viewBox="0 0 27 27" version="1.1" xmlns="http://www.w3.org/2000/svg" xmlns:xlink="http://www.w3.org/1999/xlink">
    <!-- Generator: Sketch 49.3 (51167) - http://www.bohemiancoding.com/sketch -->
    <title>ic_tokenslae</title>
    <desc>Created with Sketch.</desc>
    <defs></defs>
    <g id="web" stroke="none" stroke-width="1" fill="none" fill-rule="evenodd">
        <g id="0.04-register-2" transform="translate(-36.000000, -187.000000)" fill="#FFFFFF">
            <g id="ic_tokenslae" transform="translate(31.000000, 182.000000)">
                <g id="Group-3" transform="translate(18.000000, 19.000000) rotate(45.000000) translate(-18.000000, -19.000000) translate(9.000000, 0.000000)" fill-rule="nonzero">
                    <path d="M16.5,24.4285714 C16.5,22.4377356 15.7228765,20.5733783 14.35721,19.1797292 L13.9285714,18.7423078 L13.9285714,14.5300662 C13.9285714,11.2460749 12.9024667,8.04415093 10.9936855,5.37185729 L9,2.58069758 L7.00631449,5.37185729 C5.09753332,8.04415093 4.07142857,11.2460749 4.07142857,14.5300662 L4.07142857,18.7423078 L3.64278997,19.1797292 C2.27712354,20.5733783 1.5,22.4377356 1.5,24.4285714 C1.5,25.1658344 1.60623196,25.8863189 1.81065123,26.5731751 L3.4618738,24.2142857 L4.24285714,24.2142857 L13.7571429,24.2142857 L14.5381262,24.2142857 L16.1893488,26.5731751 C16.393768,25.8863189 16.5,25.1658344 16.5,24.4285714 Z M2.57142857,14.5300662 C2.57142857,10.9334405 3.69521802,7.42669477 5.78571429,4.5 L7.95377125,1.46472025 C8.3664971,0.886904065 9.16949007,0.753071904 9.74730625,1.16579775 C9.86275763,1.24826302 9.96376347,1.34926886 10.0462287,1.46472025 L12.2142857,4.5 C14.304782,7.42669477 15.4285714,10.9334405 15.4285714,14.5300662 L15.4285714,18.1298793 C17.0192405,19.7531413 18,21.976322 18,24.4285714 C18,26.3187237 17.4173244,28.0727847 16.4217955,29.5209323 L13.7571429,25.7142857 L4.24285714,25.7142857 L1.57820454,29.5209323 C0.582675626,28.0727847 0,26.3187237 0,24.4285714 C0,21.976322 0.980759544,19.7531413 2.57142857,18.1298793 L2.57142857,14.5300662 Z M11.3571429,30.8571429 C11.3571429,29.5553288 10.3018141,28.5 9,28.5 C7.69818595,28.5 6.64285714,29.5553288 6.64285714,30.8571429 C6.64285714,31.6215213 7.41822724,33.0476317 9,34.9837079 C10.5817728,33.0476317 11.3571429,31.6215213 11.3571429,30.8571429 Z M9,37.2857143 C6.42857143,34.4201608 5.14285714,32.2773036 5.14285714,30.8571429 C5.14285714,28.7269017 6.86975882,27 9,27 C11.1302412,27 12.8571429,28.7269017 12.8571429,30.8571429 C12.8571429,32.2773036 11.5714286,34.4201608 9,37.2857143 Z" id="Combined-Shape"></path>
                </g>
                <circle id="Oval-4" cx="23" cy="14" r="2"></circle>
            </g>
        </g>
    </g>
</svg>