<?xml version="1.0" encoding="UTF-8"?>
<svg width="36px" height="36px" viewBox="0 0 36 36" version="1.1" xmlns="http://www.w3.org/2000/svg" xmlns:xlink="http://www.w3.org/1999/xlink">
    <!-- Generator: Sketch 49.3 (51167) - http://www.bohemiancoding.com/sketch -->
    <title>ic_useravatar</title>
    <desc>Created with Sketch.</desc>
    <defs>
        <circle id="path-1" cx="18" cy="18" r="18"></circle>
    </defs>
    <g id="web" stroke="none" stroke-width="1" fill="none" fill-rule="evenodd">
        <g id="0.04-register-2" transform="translate(-1364.000000, -15.000000)">
            <g id="ic_useravatar" transform="translate(1364.000000, 15.000000)">
                <mask id="mask-2" fill="white">
                    <use xlink:href="#path-1"></use>
                </mask>
                <use id="Oval-6" fill="#000000" xlink:href="#path-1"></use>
                <path d="M18,18.5 C14.9560822,18.5 13.5,15.5299378 13.5,12 C13.5,9.51471863 15.5147186,7.5 18,7.5 C20.4852814,7.5 22.5,9.51471863 22.5,12 C22.5,15.5299378 21.0439178,18.5 18,18.5 Z M18,17.5 C20.2976008,17.5 21.5,15.047391 21.5,12 C21.5,10.0670034 19.9329966,8.5 18,8.5 C16.0670034,8.5 14.5,10.0670034 14.5,12 C14.5,15.047391 15.7023992,17.5 18,17.5 Z" id="Oval-5" fill="#616161" fill-rule="nonzero" mask="url(#mask-2)"></path>
                <path d="M18,20.5 C16.6170358,20.5 15.3146209,19.9865504 14.3142459,19.0824261 C11.7889828,20.210763 10.1971054,22.8033187 10.3669261,25.5984129 C12.9121995,26.1995646 15.4563161,26.5 18,26.5 C20.543652,26.5 23.087736,26.1995721 25.6329759,25.5984355 C25.6410598,25.4643262 25.6451068,25.3299777 25.6451068,25.1955726 C25.6451068,22.5248202 24.0669319,20.1488816 21.6856401,19.0825292 C20.6852818,19.9865882 19.382913,20.5 18,20.5 Z M21.7587307,18.0289882 C24.6820194,19.1757028 26.6451068,22.0022936 26.6451068,25.1955726 C26.6451068,25.4830234 26.6290012,25.7702485 26.5968657,26.0558974 L26.5579352,26.4019456 L26.2198572,26.4854217 C23.4809301,27.1617002 20.7407019,27.5 18,27.5 C15.2592981,27.5 12.5190691,27.1617002 9.78014034,26.4854217 L9.44206218,26.4019457 L9.40313184,26.0558972 C9.01109482,22.5711141 11.022234,19.2885083 14.2418006,18.0289354 L14.5501293,17.9083097 L14.7815459,18.145087 C15.6231848,19.0062216 16.771731,19.5 18,19.5 C19.2283183,19.5 20.3769069,19.0061817 21.2185529,18.1449858 L21.4501977,17.9079604 L21.7587307,18.0289882 Z" id="Combined-Shape" fill="#616161" fill-rule="nonzero" mask="url(#mask-2)"></path>
            </g>
        </g>
    </g>
</svg>