<?xml version="1.0" encoding="UTF-8"?>
<svg width="28px" height="24px" viewBox="0 0 28 24" version="1.1" xmlns="http://www.w3.org/2000/svg" xmlns:xlink="http://www.w3.org/1999/xlink">
    <!-- Generator: Sketch 49.3 (51167) - http://www.bohemiancoding.com/sketch -->
    <title>ic_wallet</title>
    <desc>Created with Sketch.</desc>
    <defs></defs>
    <g id="web" stroke="none" stroke-width="1" fill="none" fill-rule="evenodd">
        <g id="0.04-register-2" transform="translate(-35.000000, -111.000000)" fill="#FFFFFF">
            <g id="ic_wallet" transform="translate(31.000000, 107.000000)">
                <path d="M28,8 L30,8 C31.1045695,8 32,8.8954305 32,10 L32,26 C32,27.1045695 31.1045695,28 30,28 L6,28 C4.8954305,28 4,27.1045695 4,26 L4,25.6390792 C4,25.7492409 4.00910168,25.8592143 4.02721215,25.9678771 C4.20880226,27.0574178 5.23925733,27.7934571 6.32879797,27.611867 L13,26.5 L30,26.5 C30.2761424,26.5 30.5,26.2761424 30.5,26 L30.5,10 C30.5,9.72385763 30.2761424,9.5 30,9.5 L28,9.5 L28,8 Z" id="Combined-Shape" fill-rule="nonzero"></path>
                <path d="M5.91780051,9.20105721 C5.67670652,9.24123955 5.5,9.4498346 5.5,9.69425418 L5.5,25.6390792 C5.5,25.6666196 5.50227542,25.6941129 5.50680304,25.7212787 C5.55220056,25.9936638 5.80981433,26.1776736 6.08219949,26.1322761 L26.0821995,22.7989428 C26.3232935,22.7587605 26.5,22.5501654 26.5,22.3057458 L26.5,6.36092084 C26.5,6.33338041 26.4977246,6.30588706 26.493197,6.27872135 C26.4477994,6.00633619 26.1901857,5.82232635 25.9178005,5.86772388 L5.91780051,9.20105721 Z M5.67120203,7.72146633 L25.671202,4.388133 C26.7607427,4.20654289 27.7911977,4.94258223 27.9727878,6.03212287 C27.9908983,6.14078572 28,6.25075912 28,6.36092084 L28,22.3057458 C28,23.2834241 27.2931739,24.1178043 26.328798,24.2785337 L6.32879797,27.611867 C5.23925733,27.7934571 4.20880226,27.0574178 4.02721215,25.9678771 C4.00910168,25.8592143 4,25.7492409 4,25.6390792 L4,9.69425418 C4,8.71657587 4.70682609,7.88219565 5.67120203,7.72146633 Z" id="Rectangle" fill-rule="nonzero"></path>
                <circle id="Oval" cx="23" cy="14" r="2"></circle>
            </g>
        </g>
    </g>
</svg>