<?xml version="1.0" encoding="UTF-8"?>
<svg width="28px" height="34px" viewBox="0 0 28 34" version="1.1" xmlns="http://www.w3.org/2000/svg" xmlns:xlink="http://www.w3.org/1999/xlink">
    <!-- Generator: Sketch 49.3 (51167) - http://www.bohemiancoding.com/sketch -->
    <title>ic_db_logo</title>
    <desc>Created with Sketch.</desc>
    <defs></defs>
    <g id="web" stroke="none" stroke-width="1" fill="none" fill-rule="evenodd">
        <g id="0.04-register-2" transform="translate(-36.000000, -30.000000)" fill="#FFFFFF">
            <g id="ic_db_logo" transform="translate(36.000000, 30.000000)">
                <path d="M21.9746339,32.8242075 L26.8247495,24.8915274 L26.8247495,32.8242075 L21.9746339,32.8242075 Z M10.6263051,7.31146974 L14.000981,1.72645533 L17.3599608,7.29579251 C16.34952,6.78040346 15.2135099,6.47861671 14.000981,6.47861671 C12.778642,6.47861671 11.6445939,6.79608069 10.6263051,7.31146974 Z M7.66169154,9.94524496 L7.66169154,2.85129683 C9.23327027,1.95573487 11.0187093,1.4070317 12.9140214,1.24634006 L7.66169154,9.94524496 Z M20.3383085,9.94524496 L15.0938266,1.26397695 C16.9852148,1.42270893 18.7706538,1.95769452 20.3383085,2.85129683 L20.3383085,9.94524496 Z M26.7227244,22.8005764 L21.515521,31.3211527 L21.515521,14.172219 L26.7227244,22.8005764 Z M26.8247495,13.9840922 L26.8247495,20.6900288 L21.515521,11.8951009 L21.515521,3.61164265 C24.7293112,5.93971182 26.8247495,9.72184438 26.8247495,13.9840922 Z M6.48447901,11.8951009 L1.17525051,20.6900288 L1.17525051,13.9840922 C1.17525051,9.72184438 3.27068881,5.93971182 6.48447901,3.61164265 L6.48447901,11.8951009 Z M6.48447901,31.3231124 L1.27531357,22.8005764 L6.48447901,14.172219 L6.48447901,31.3231124 Z M1.17525051,32.8242075 L1.17525051,24.8915274 L6.02340411,32.8242075 L1.17525051,32.8242075 Z M14.000981,0 C6.28042884,0 0,6.27285303 0,13.9840922 L0,34 L7.66169154,34 L7.66169154,13.9840922 C7.66169154,10.4919885 10.5046598,7.65244957 14.000981,7.65244957 C17.4953402,7.65244957 20.3383085,10.4919885 20.3383085,13.9840922 L20.3383085,34 L28,34 L28,13.9840922 C28,6.27285303 21.7195712,0 14.000981,0 Z" id="Fill-1"></path>
            </g>
        </g>
    </g>
</svg>