<svg xmlns="http://www.w3.org/2000/svg" width="18" height="19" viewBox="0 0 18 19">
  <g fill="#FFF" transform="translate(-5 -4)">
    <path d="M14,15.75 C10.8243627,15.75 8.25,13.1756373 8.25,10 C8.25,6.82436269 10.8243627,4.25 14,4.25 C17.1756373,4.25 19.75,6.82436269 19.75,10 C19.75,13.1756373 17.1756373,15.75 14,15.75 Z M14,14.25 C16.3472102,14.25 18.25,12.3472102 18.25,10 C18.25,7.65278981 16.3472102,5.75 14,5.75 C11.6527898,5.75 9.75,7.65278981 9.75,10 C9.75,12.3472102 11.6527898,14.25 14,14.25 Z"/>
    <path d="M22.75,23 L21.25,23 C21.25,18.9959356 18.0040644,15.75 14,15.75 C9.99593556,15.75 6.75,18.9959356 6.75,23 L5.25,23 C5.25,18.1675084 9.16750844,14.25 14,14.25 C18.8324916,14.25 22.75,18.1675084 22.75,23 Z"/>
    <path d="M9.75,16 L11.25,16 C11.25,16.9018083 12.4374684,17.75 14,17.75 C15.5625316,17.75 16.75,16.9018083 16.75,16 L18.25,16 C18.25,17.8596155 16.3034617,19.25 14,19.25 C11.6965383,19.25 9.75,17.8596155 9.75,16 Z"/>
  </g>
</svg>
