<?xml version="1.0" encoding="UTF-8"?>
<svg width="115px" height="78px" viewBox="0 0 115 78" version="1.1" xmlns="http://www.w3.org/2000/svg" xmlns:xlink="http://www.w3.org/1999/xlink">
    <!-- Generator: Sketch 49.3 (51167) - http://www.bohemiancoding.com/sketch -->
    <title>ic_logomain</title>
    <desc>Created with Sketch.</desc>
    <defs></defs>
    <g id="web" stroke="none" stroke-width="1" fill="none" fill-rule="evenodd">
        <g id="0.01-login" transform="translate(-663.000000, -60.000000)" fill="#FFFFFF">
            <g id="ic_logomain" transform="translate(663.000000, 60.000000)">
                <path d="M67.55825,42.375 L73.73825,32.255 L73.73825,42.375 L67.55825,42.375 Z M53.09825,9.8275 L57.39825,2.7025 L61.67825,9.8075 C60.39075,9.15 58.94325,8.765 57.39825,8.765 C55.84075,8.765 54.39575,9.17 53.09825,9.8275 Z M49.32075,13.1875 L49.32075,4.1375 C51.32325,2.995 53.59825,2.295 56.01325,2.09 L49.32075,13.1875 Z M65.47325,13.1875 L58.79075,2.1125 C61.20075,2.315 63.47575,2.9975 65.47325,4.1375 L65.47325,13.1875 Z M73.60825,29.5875 L66.97325,40.4575 L66.97325,18.58 L73.60825,29.5875 Z M73.73825,18.34 L73.73825,26.895 L66.97325,15.675 L66.97325,5.1075 C71.06825,8.0775 73.73825,12.9025 73.73825,18.34 Z M47.82075,15.675 L41.05575,26.895 L41.05575,18.34 C41.05575,12.9025 43.72575,8.0775 47.82075,5.1075 L47.82075,15.675 Z M47.82075,40.46 L41.18325,29.5875 L47.82075,18.58 L47.82075,40.46 Z M41.05575,42.375 L41.05575,32.255 L47.23325,42.375 L41.05575,42.375 Z M57.39825,0.5 C47.56075,0.5 39.55825,8.5025 39.55825,18.34 L39.55825,43.875 L49.32075,43.875 L49.32075,18.34 C49.32075,13.885 52.94325,10.2625 57.39825,10.2625 C61.85075,10.2625 65.47325,13.885 65.47325,18.34 L65.47325,43.875 L75.23575,43.875 L75.23575,18.34 C75.23575,8.5025 67.23325,0.5 57.39825,0.5 Z" id="Fill-1"></path>
                <path d="M13.07575,72.187 L10.57575,72.187 L10.57575,63.237 C10.57575,61.0595 8.76825,59.287 6.54825,59.287 C4.30575,59.287 2.50075,61.0595 2.50075,63.237 L2.50075,72.187 L0.00075,72.187 L0.00075,63.237 C0.00075,59.6795 2.92825,56.787 6.52825,56.787 C10.14575,56.787 13.07575,59.6795 13.07575,63.237 L13.07575,72.187 Z M25.98575,72.9145 C21.47825,72.9145 17.81075,69.2495 17.81075,64.742 C17.81075,60.237 21.47825,56.5695 25.98575,56.5695 C28.53825,56.5695 30.90075,57.7295 32.46075,59.752 L30.47825,61.282 C29.39575,59.8745 27.75825,59.0695 25.98575,59.0695 C22.85825,59.0695 20.31075,61.6145 20.31075,64.742 C20.31075,67.8695 22.85825,70.4145 25.98575,70.4145 C27.75825,70.4145 29.39575,69.6095 30.48075,68.2045 L32.45825,69.7345 C30.89825,71.7545 28.53825,72.9145 25.98575,72.9145 Z M106.61825,72.91425 C102.11075,72.91425 98.44325,69.24925 98.44325,64.74425 C98.44325,60.23675 102.11075,56.56925 106.61825,56.56925 C111.12575,56.56925 114.79325,60.23675 114.79325,64.74425 C114.79325,69.24925 111.12575,72.91425 106.61825,72.91425 Z M106.61825,59.06925 C103.49075,59.06925 100.94325,61.61675 100.94325,64.74425 C100.94325,67.87175 103.49075,70.41425 106.61825,70.41425 C109.74575,70.41425 112.29325,67.87175 112.29325,64.74425 C112.29325,61.61675 109.74575,59.06925 106.61825,59.06925 Z M39.914,72.187 L37.414,72.187 L37.414,62.537 C37.414,59.4145 39.954,56.8745 43.0765,56.8745 L46.554,56.8745 L46.554,59.3745 L43.0765,59.3745 C41.3315,59.3745 39.914,60.792 39.914,62.537 L39.914,72.187 Z M95.89075,56.8745 L95.89075,59.3745 L91.82825,59.3745 L91.82825,72.187 L89.32825,72.187 L89.32825,50.6245 L91.82825,50.6245 L91.82825,56.8745 L95.89075,56.8745 Z M76.19825,56.5695 C80.70575,56.5695 84.37325,60.237 84.37325,64.742 C84.37325,69.2495 80.70575,72.9145 76.19825,72.9145 C75.06825,72.9145 74.00075,72.6645 73.02325,72.2445 L73.02325,77.6545 L70.52325,77.6545 L70.52325,56.822 L73.02325,56.822 L73.02325,57.237 C74.00075,56.8195 75.06825,56.5695 76.19825,56.5695 Z M76.19825,70.4145 C79.32575,70.4145 81.87325,67.8695 81.87325,64.742 C81.87325,61.6145 79.32575,59.0695 76.19825,59.0695 C75.00825,59.0695 73.93325,59.4695 73.02325,60.0995 L73.02325,69.382 C73.93325,70.0145 75.00825,70.4145 76.19825,70.4145 Z M54.02775,77.65575 L57.29025,70.66825 L50.59525,56.87325 L53.37275,56.87325 L58.65275,67.74825 L63.72525,56.87325 L66.48025,56.87325 L56.78525,77.65575 L54.02775,77.65575 Z" id="Combined-Shape"></path>
            </g>
        </g>
    </g>
</svg>